<?xml version="1.0" encoding="UTF-8" standalone="no"?><!DOCTYPE svg PUBLIC "-//W3C//DTD SVG 1.1//EN" "http://www.w3.org/Graphics/SVG/1.1/DTD/svg11.dtd"><svg width="100%" height="100%" viewBox="0 0 3509 3027" version="1.1" xmlns="http://www.w3.org/2000/svg" xmlns:xlink="http://www.w3.org/1999/xlink" xml:space="preserve" xmlns:serif="http://www.serif.com/" style="fill-rule:evenodd;clip-rule:evenodd;stroke-linejoin:round;stroke-miterlimit:2;"><g id="Background"><path d="M619.268,3021.732c-38.405,-6.153 -270.231,-43.292 -428.323,-230.037c-332.429,-392.679 -145.016,-1018.85 416.397,-1121.78c32.464,-5.952 20.921,-18.48 20.694,-51.058c-0.146,-21.001 -47.389,-14.29 -64.454,-15.05c-48.606,-2.163 -70.01,-85.205 -29.054,-126.21c16.144,-16.163 19.263,-19.286 285.112,-15.854c79.72,1.029 81.821,77.258 61.916,106.818c-44.469,66.037 -109.814,14.225 -109.199,50.369c0.546,32.093 -9.011,44.068 22.442,48.626c33.363,4.835 228.019,33.042 378.533,185.175c473.503,478.597 90.204,1239.288 -554.064,1169.001Z" style="fill:#059ff0;"/><path d="M147.489,812.665c0.036,65.54 0.441,798.05 -7.999,819.206c-12.161,30.484 -139.686,40.299 -139.489,-44.195c2.05,-881.117 -3.087,-883.195 21.515,-955.596c85.327,-251.106 342.446,-231.564 349.158,-250.243c1.69,-4.702 -4.579,-38.048 25.763,-60.461c12.893,-9.523 14.34,-11.686 373.211,-10.594c36.61,0.111 69.698,-3.245 92.348,33.925c10.958,17.982 -5.275,51.148 26.379,51.232c184.889,0.489 205.835,7.683 247.592,-84.444c72.796,-160.61 112.693,-320.769 402.422,-311.076c157.462,5.268 731.169,-7.333 792.979,8.586c266.073,68.527 248.795,373.682 337.978,380.99c79.05,6.477 497.999,-17.126 599.747,17.996c274.273,94.676 237.982,292.646 237.996,492.177c0.11,1622.755 6.087,1623.291 -4.93,1675.238c-70.507,332.447 -378.516,289.214 -513.759,289.161c-1444.488,-0.572 -1446.828,4.269 -1474.223,-9.826c-61.094,-31.435 -42.276,-136.826 30.353,-138.037c98.385,-1.641 1611.897,3.374 1650.29,-2.861c38.945,-6.325 133.733,-38.809 160.096,-132.982c13.178,-47.074 10.314,-47.595 10.677,-761.924c0.004,-8.026 0.028,-1083.342 -0.053,-1087.563c-1.004,-52.527 -37.44,-192.148 -195.846,-195.561c-523.948,-11.289 -599.283,60.413 -703.116,-178.118c-107.671,-247.346 -164.731,-210.12 -434.437,-210.101c-603.241,0.043 -615.529,-8.298 -674.556,52.983c-113.151,117.473 -50.866,341.736 -356.691,343.366c-654.617,3.487 -714.656,-24.663 -797.129,52.707c-68.225,64.004 -55.901,181.141 -56.276,216.017Z" style="fill:#059ff0;"/><path d="M638.039,2871.826c-450.968,-69.396 -552.21,-518.613 -391.282,-789.095c179.705,-302.043 565.523,-344.341 790.187,-149.605c416.026,360.606 122.946,1001.777 -398.905,938.7Z" style="fill:#bdddf1;"/><path d="M1373.035,1544.055c-9.302,-313.241 215.892,-531.288 433.918,-563.935c435.917,-65.274 747.381,413.685 553.447,774.597c-218.699,407.001 -754.448,340.107 -926.065,12.903c-59.751,-113.919 -59.712,-208.699 -61.3,-223.566Zm899.278,-81.653c-3.296,-19.413 -23.775,-140.025 -104.975,-222.622c-263.493,-268.026 -652.817,-50.081 -649.144,285.411c3.724,340.167 458.582,511.111 678.972,214.465c89.252,-120.134 78.338,-218.097 75.147,-277.254Z" style="fill:#05a0f0;"/><path d="M2747.354,1355.908c81.886,506.811 -253.525,871.732 -583.853,982.103c-26.172,8.745 -132.296,59.379 -164.983,-18.093c-30.372,-71.986 37.574,-93.548 45.69,-96.124c47.867,-15.19 129.514,-29.05 267.362,-126.13c414.371,-291.823 426.436,-989.367 -115.695,-1250.046c-358.691,-172.474 -833.728,-7.226 -989.841,452.234c-19.152,56.368 -8.022,92.191 -61.411,88.18c-68.233,-5.126 -101.222,3.974 -87.078,-62.789c177.103,-835.952 1203.615,-904.072 1576.678,-276.414c86.245,145.103 103.036,257.398 113.13,307.079Z" style="fill:#059ff0;"/><path d="M2272.313,1462.401c3.191,59.157 14.105,157.12 -75.147,277.254c-220.39,296.646 -675.247,125.702 -678.972,-214.465c-3.673,-335.492 385.651,-553.437 649.144,-285.411c81.2,82.597 101.679,203.209 104.975,222.622Z" style="fill:#bdddf1;"/><path d="M982.616,2171.159c4.351,0.009 32.925,-6.585 59.473,13.308c21.045,15.769 24.043,42.919 24.509,47.144c6.711,60.774 -25.46,72.331 -172.387,136.373c-106.55,46.443 -207.328,118.564 -253.693,31.122c-14.019,-26.44 -11.609,-27.776 -10.27,-373.942c0.3,-77.463 64.246,-121.418 118.381,-78.792c57.099,44.959 17.336,293.123 29.947,308.654c4.447,5.477 147.002,-65.102 204.039,-83.867Z" style="fill:#059ff0;"/></g></svg>