<?xml version="1.0" encoding="UTF-8" standalone="no"?><!DOCTYPE svg PUBLIC "-//W3C//DTD SVG 1.1//EN" "http://www.w3.org/Graphics/SVG/1.1/DTD/svg11.dtd"><svg width="100%" height="100%" viewBox="0 0 4267 4267" version="1.1" xmlns="http://www.w3.org/2000/svg" xmlns:xlink="http://www.w3.org/1999/xlink" xml:space="preserve" xmlns:serif="http://www.serif.com/" style="fill-rule:evenodd;clip-rule:evenodd;stroke-linejoin:round;stroke-miterlimit:2;"><g><path d="M206.724,2426.795c13.169,-32.032 12.988,-58.517 13.441,-59.904c0.835,-2.557 7.981,-24.453 9.391,-32.283c17.983,-99.876 86.761,-205.095 90.347,-208.999c23.165,-25.219 58.632,-77.986 88.838,-95.874c27.44,-16.249 2.459,-52.604 -0.643,-78.121c-0.482,-3.964 -5.17,-42.521 -7.737,-49.31c-8.113,-21.457 -0.677,-31.981 -3.739,-118.383c-1.522,-42.947 8.882,-41.13 11.145,-65.04c12.98,-137.105 110.014,-315.085 146.765,-346.847c2.009,-1.737 6.577,-16.509 8.542,-18.744c14.666,-16.68 47.718,-58.946 48.271,-59.498c75.363,-75.302 130.723,-135.861 284.52,-212.806c132.655,-66.368 205.831,-68.895 215.578,-86.1c11.995,-21.172 108.165,-190.919 189.421,-237.984c37.132,-21.508 31.619,-28.973 70.191,-48.659c13.948,-7.119 73.829,-44.207 135.265,-64.67c149.112,-49.667 175.24,-44.866 302.775,-44.669c142.16,0.219 319.157,83.842 333.505,95.633c13.453,11.056 14.661,2.188 38.77,-7.984c85.535,-36.09 123.972,-45.677 135.114,-48.456c89.369,-22.291 90.471,-17.023 98.008,-19.698c38.244,-13.572 186.764,-10.42 232.036,-3.507c22.429,3.425 20.876,7.945 43.17,10.825c14.288,1.846 80.05,10.34 172.951,50.166c198.177,84.956 290.148,192.279 313.939,215.862c35.023,34.717 29.805,39.086 33.294,41.527c23.174,16.215 86.016,124.921 92.616,136.337c21.294,36.834 17.76,38.317 37.812,75.653c13.43,25.007 28.255,21.271 45.24,29.678c98.771,48.885 150.933,79.23 206.955,132.457c1.207,1.147 12.398,6.804 13.841,8.163c136.183,128.338 189.264,253.703 191.089,257.374c80.832,162.553 68.557,237.811 79.476,265.43c3.485,8.817 4.367,11.048 3.838,118.444c-0.121,24.589 -6.482,23.561 -6.121,48.557c0.323,22.352 -4.098,21.412 -5.596,43.474c-1.516,22.326 -7.914,20.529 -10.52,43.158c-0.451,3.918 -0.751,6.517 25.885,41.956c89.2,118.683 107.008,199.843 118.24,233.05c13.565,40.107 18.033,82.146 19.864,87.165c15.247,41.804 8.9,169.95 7.824,172.996c-9.79,27.718 -9.26,64.435 -11.15,69.993c-19.122,56.25 1.071,67.401 -70.429,216.034c-93.633,194.644 -277.769,311.873 -302.749,324.502c-133.403,67.445 -135.768,61.921 -147.067,68.292c-6.857,3.866 -52.207,144.437 -71.08,167.16c-1.816,2.186 -47.909,74.771 -48.645,75.558c-24.406,26.09 -20.151,28.755 -37.5,48.886c-140.543,163.082 -337.554,228.378 -371.093,239.494c-112.388,37.249 -114.463,29.142 -124.103,32.675c-20.335,7.452 -14.422,18.412 -14.483,85.463c-0.126,140.333 2.172,140.107 -5.186,178.508c-0.664,3.467 -5.735,29.933 -14.795,41.575c-1.589,2.043 -17.813,41.564 -73.465,72.382c-20.232,11.203 -39.688,12.711 -44.184,14.31c-30.833,10.961 -43.76,-0.623 -53.79,-1.956c-16.209,-2.153 -87.546,-11.628 -151.77,-136.895c-25.167,-49.089 -36.716,-59.37 -43.109,-70.274c-39.917,-68.078 -89.05,-108.386 -111.43,-131.34c-98.799,-101.335 -200.193,-132.214 -280.69,-194.97c-75.489,-58.852 -92.721,-65.471 -153.961,-148.378c-20.448,-27.683 -44.849,-44.449 -118.441,-194.999c-9.153,-18.724 -13.512,-1.865 -38.295,19.574c-19.488,16.859 -21.828,12.962 -40.813,29.796c-34.309,30.423 -49.763,34.42 -54.033,37.835c-30.823,24.654 -125.291,63.082 -136.587,67.677c-139.503,56.748 -333.622,62.795 -351.145,56.542c-27.189,-9.703 -28.594,1.04 -48.424,-5.66c-17.73,-5.99 -53.798,-9.325 -59.283,-11.074c-2.952,-0.942 -295.359,-47.71 -437.924,-286.573c-7.397,-12.393 -61.556,-103.134 -66.275,-167.793c-4.144,-56.781 -57.27,-61.481 -68.782,-80.615c-9.483,-15.762 -14.833,-9.344 -24.842,-18.345c-7.015,-6.308 -67.595,-60.787 -81.289,-85.432c-15.371,-27.663 -30.167,-18.071 -99.215,-155.532c-51.133,-101.797 -53.635,-189.411 -57.391,-200.752c-9.973,-30.109 -8.299,-30.467 -10.182,-156.039Z" style="fill:#15709f;"/><path d="M3213.44,2310.023c-74.51,10.148 -101.894,93.052 -10.061,142.255c234.094,125.425 458.772,48.599 590.852,-173.004c11.701,-19.632 16.598,-0.463 36.123,33.309c136.944,236.869 58.619,725.875 -406.764,868.825c-92.61,28.447 -10.164,98.533 -190.922,323.698c-61.013,76.002 -237.309,220.448 -456.721,231.265c-91.158,4.494 -84.339,39.005 -83.893,235.033c0.105,45.959 0.466,45.368 0.363,91.839c-0.018,8.179 7.347,65.774 -30.304,55.129c-63.042,-17.825 -93.169,-249.385 -397.897,-424.926c-55.404,-31.916 -409.572,-207.136 -397.716,-624.067c7.844,-275.856 218.237,-524.538 487.876,-547.049c21.175,-1.768 131.615,14.539 137.499,-63.05c1.941,-25.601 -11.788,-78.929 -83.325,-77.519c-61.164,1.206 -304.457,0.768 -511.078,235.668c-13.049,14.835 -33.085,52.641 -31.419,25.914c5.767,-92.481 -9.972,-1160.032 9.157,-1291.283c2.06,-14.137 21.936,-282.133 277.956,-472.202c312.888,-232.288 863.304,-148.008 1060.775,336.741c2.234,5.483 21.392,52.513 38.549,63.177c1.112,0.691 371.576,94.113 469.318,476.941c90.618,354.926 -137.005,761.36 -455.772,569.406c-31.241,-18.813 -38.226,-14.954 -52.597,-16.097Z" style="fill:#d1f5fe;"/><path d="M1023.469,2621.131c-15.25,-136.742 -211.785,-35.677 -261.095,-3.765c-90.875,58.812 -139.854,139.232 -148.76,153.855c-64.151,105.331 -53.696,162.68 -72.428,145.384c-297.388,-274.59 -219.429,-700.149 31.361,-834.981c254.567,-136.862 389.78,-22.567 464.616,-48.097c32.841,-11.204 98.434,-111.813 -49.225,-140.946c-288.914,-57.003 -403.677,38.586 -437.541,41.613c-19.154,1.712 -13.033,-141.427 -6.212,-182.867c69.614,-422.965 443.202,-563.486 492.489,-578.299c10.413,-3.13 -0.401,33.514 -2.8,65.445c-20.316,270.484 127.958,371.053 161.248,397.168c106.401,83.47 191.707,-50.266 91.326,-113.03c-243.746,-152.404 -65.296,-519.442 92.43,-638.353c184.336,-138.972 360.849,-185.353 624.19,-93.006c11.183,3.922 18.72,5.537 9.482,13.053c-331.291,269.56 -285.334,734.347 -285.221,844.604c0.333,326.255 10.718,347.976 -15.775,341.265c-150.293,-38.073 -445.334,14.297 -548.4,291.445c-3.188,8.573 -31.944,85.899 31.203,109.99c85.271,32.533 105.006,-78.68 116.183,-100.731c110.891,-218.795 405.497,-174.296 415.764,-144.365c3.628,10.575 1.299,958.402 1.094,1041.741c-0.126,51.128 -209.65,263.851 -496.157,266.568c-522.342,4.954 -692.585,-468.244 -431.751,-692.755c125.568,-108.082 211.269,-28.159 223.978,-140.937Z" style="fill:#d1f5fe;"/><path d="M2705.655,1138.069c398.236,29.715 595.048,479.044 348.967,784.539c-229.498,284.909 -723.211,208.519 -836.101,-170.742c-51.45,-172.85 7.267,-333.476 73.348,-420.005c162.452,-212.723 379.315,-193.804 413.786,-193.792Z" style="fill:#15709f;"/><path d="M3021.297,1616.525c-9.139,368.696 -480.37,450.698 -636.287,168.502c-174.834,-316.434 190.913,-653.681 497.127,-441.605c134.019,92.818 138.461,248.592 139.16,273.103Z" style="fill:#d1f5fe;"/><path d="M2535.044,3128.951c2.986,-16.23 21.67,-117.787 86.164,-187.423c96.549,-104.247 214.378,-114.374 241.057,-116.109c14.231,-0.925 305.485,-0.6 313.349,-0.348c87.674,2.818 103.447,105.539 31.675,134.586c-27.057,10.95 -320.218,-0.265 -355.923,6.449c-160.901,30.257 -168.645,177.947 -177.399,200.816c-24.359,63.633 -138.138,84.938 -138.923,-37.972Z" style="fill:#156f9e;"/><path d="M3737.94,450.48l-5.322,5.485c-5.572,3.424 -11.145,6.849 -16.717,10.273l0.412,5.809c-9.137,7.065 -18.275,14.13 -27.412,21.195c-0,-0 -21.599,21.62 -21.599,21.62c-3.428,5.573 -6.856,11.146 -10.284,16.719c-2.651,2.575 -3.446,-2.796 -5.856,-0.456c-2.426,2.356 2.92,3.235 0.374,5.78c-1.365,1.364 -4.404,-1.735 -5.777,-0.379c-1.365,1.348 1.701,4.388 0.345,5.744c-1.356,1.357 -4.399,-1.706 -5.746,-0.34c-1.357,1.376 1.747,4.424 0.376,5.786c-1.373,1.365 -4.429,-1.771 -5.795,-0.399c-1.37,1.376 1.777,4.434 0.407,5.81c-10.954,8.846 -21.908,17.692 -32.862,26.537c-3.833,4.363 -14.138,16.091 -50.265,52.383c-64.15,64.443 -113.44,10.472 -122.897,-9.318c-22.232,-46.521 13.259,-79.067 22.591,-90.959c10.44,-9.382 20.88,-18.763 31.319,-28.145c3.405,-5.598 6.81,-11.196 10.215,-16.794c2.694,-2.473 3.421,2.746 5.882,0.487c2.427,-2.228 -2.689,-3.179 -0.254,-5.652c1.313,-1.334 3.985,1.134 5.612,0.208c1.249,-0.71 0.308,-3.049 1.267,-4.119c7.4,-8.264 14.903,-14.965 16.273,-16.189c2.503,-2.236 14.675,-13.107 30.323,-28.998c55.355,-56.214 55.503,-55.636 91.599,-92.047c59.132,-59.649 70.142,-75.345 98.474,-76.662c50.618,-2.353 63.348,27.591 67.315,33.34c41.934,60.778 -57.029,128.555 -72.341,147.518c-1.209,1.497 1.551,4.264 0.342,5.761Z" style="fill:#1671a0;"/><path d="M3097.42,109.586c0.108,-19.901 -8.131,-68.505 29.966,-96.549c15.194,-11.185 13.81,-12.362 15.314,-12.917c2.237,-0.827 4.078,2.873 6.453,3.088c7.015,0.634 35.382,-11.374 65.28,18.906c7.26,7.353 6.155,7.673 11.852,16.083c16.537,24.411 12.292,27.241 9.777,368.435c-0.802,108.723 -97.439,86.774 -115.075,65.382c-7.28,-8.831 -9.378,-5.473 -9.939,-6.225c-0.329,-0.44 1.641,-3.76 -2.293,-9.327c-21.138,-29.911 -5.816,-135.563 -11.334,-346.876Z" style="fill:#1672a1;"/><path d="M4050.349,855.336c11.282,4.598 11.47,4.85 16.17,15.973c0.91,1.247 7.679,10.521 9.589,16.747c14.639,47.721 -23.175,79.168 -37.265,84.065c-22.619,7.862 -352.009,3.252 -382.616,2.823c-44.558,-0.624 -72.111,-62.071 -44.99,-99.586c9.79,-13.542 5.003,-15.345 6.006,-16.309c0.748,-0.718 5.264,4.157 12.618,-3.218c10.868,-10.899 28.073,-11.464 58.838,-11.411c331.487,0.571 340.019,-4.351 361.651,10.917Z" style="fill:#1671a0;"/></g></svg>