<?xml version="1.0" encoding="UTF-8" standalone="no"?><!DOCTYPE svg PUBLIC "-//W3C//DTD SVG 1.1//EN" "http://www.w3.org/Graphics/SVG/1.1/DTD/svg11.dtd"><svg width="100%" height="100%" viewBox="0 0 4267 4267" version="1.1" xmlns="http://www.w3.org/2000/svg" xmlns:xlink="http://www.w3.org/1999/xlink" xml:space="preserve" xmlns:serif="http://www.serif.com/" style="fill-rule:evenodd;clip-rule:evenodd;stroke-linejoin:round;stroke-miterlimit:2;"><g><path d="M2081.691,1051.633c24.008,-18.482 12.624,-29.824 263.683,-271.863c14.385,-13.868 71.46,-68.892 189.134,-163.124c4.519,-3.619 45.432,-36.382 59.227,-41.58c21.046,-7.931 11.721,-23.879 241.376,-144.13c280.529,-146.889 538.431,-210.576 715.424,-262.814c96.928,-28.607 366.309,-72.125 398.356,-77.302c120.313,-19.436 142.313,-8.563 150.333,-9.115c1.94,-0.133 3.517,-2.984 5.348,-2.329c0.977,0.349 0.033,1.536 9.838,8.442c18.153,12.786 23.098,8.858 30.112,29.682c7.119,21.134 -1.103,189.584 -0.937,191.822c0.976,13.186 -2.132,12.941 -14.022,164.677c-1.68,21.436 -9.97,57.664 -8.792,64.005c0.322,1.735 2.464,3.151 2.071,4.871c-1.685,7.372 -6.049,6.167 -6.372,22.464c-0.516,25.984 -8.454,24.539 -9.095,50.34c-0.044,1.774 2.169,3.313 1.735,5.033c-1.249,4.956 -6.26,3.512 -6.48,22.426c-0.021,1.824 2.538,3.308 2.061,5.068c-1.015,3.748 -6.325,1.934 -6.564,17.798c-0.026,1.757 2.096,3.319 1.629,5.013c-0.331,1.202 -6.51,5.303 -6.299,17.905c0.031,1.879 2.828,3.321 2.329,5.133c-0.785,2.85 -6.987,2.371 -6.889,17.708c0.012,1.836 2.551,3.354 2.037,5.116c-0.072,0.248 -6.444,4.025 -6.438,13.201c0.007,9.836 -4.474,8.762 -4.35,18.33c0.023,1.816 2.297,3.431 1.746,5.161c-0.664,2.088 -4.086,2.408 -4.814,4.475c-1.886,5.358 -4.519,35.69 -14.465,59.301c-2.001,4.749 2.492,4.729 0.912,9.436c-0.712,2.121 -4.019,2.444 -5.034,4.438c-4.697,9.225 -8.956,33.555 -9.477,36.529c-0.51,2.912 -1.505,5.831 -1.263,8.777c0.158,1.926 3.037,3.44 2.417,5.27c-0.758,2.24 -4.524,2.21 -5.651,4.289c-0.884,1.632 -5.586,10.306 -5.727,22.482c-0.021,1.851 2.53,3.458 1.927,5.208c-0.742,2.152 -4.202,2.357 -5.234,4.386c-1.33,2.614 -1.631,5.758 -1.415,8.683c0.144,1.948 3.075,3.473 2.449,5.323c-0.763,2.252 -4.522,2.22 -5.702,4.283c-0.923,1.613 -5.819,10.169 -5.686,22.524c0.02,1.87 2.616,3.449 2.039,5.228c-0.696,2.147 -4.112,2.386 -5.157,4.386c-3.45,6.609 2.462,6.846 0.208,13.787c-0.689,2.121 -4.01,2.46 -4.976,4.47c-1.263,2.63 -1.599,5.746 -1.326,8.65c0.189,2.007 3.377,3.557 2.65,5.438c-0.906,2.342 -4.689,2.182 -6.331,4.081c-0.946,1.094 -1.02,2.812 -0.872,4.251c0.189,1.834 2.455,3.473 1.846,5.213c-0.749,2.141 -4.152,2.376 -5.206,4.385c-0.106,0.201 -4.528,21.059 -8.967,32.102c-2.154,5.358 0.112,8.973 0.043,9.173c-0.7,2.04 -3.678,2.607 -4.588,4.563c-4.205,9.043 -9.033,29.286 -9.651,31.878c-1.751,7.341 1.297,8.684 0.999,9.498c-0.79,2.155 -3.999,2.471 -5.368,4.313c-3.267,4.394 3.109,4.57 1.159,9.571c-0.864,2.216 -4.323,2.28 -5.821,4.128c-0.907,1.119 -1.174,2.795 -0.944,4.216c0.325,2.001 3.239,3.634 2.527,5.533c-0.466,1.241 -2.832,-0.416 -9.228,13.767c-1.087,2.411 0.211,2.857 -11.597,30.959c-6.867,16.344 -1.881,18.348 -13.039,32.389c-2.317,2.915 -6.658,26.424 -24.952,60.586c-0.486,0.907 -3.042,7.566 -3.038,7.803c0.03,1.84 2.317,3.627 1.55,5.3c-1.094,2.386 -3.849,0.562 -16.924,28.116c-9.13,19.241 -4.438,20.275 -5.451,22.459c-0.432,0.932 -3.471,-2.042 -8.854,9.306c-1.338,2.821 -16.026,33.784 -16.036,35.578c-0.048,8.513 -1.631,7.998 -46.366,95.78c-5.2,10.203 -3.085,11.104 -11.241,19.596c-3.486,3.629 1.924,4.551 -0.378,8.957c-1.088,2.081 -4.84,1.755 -5.899,3.851c-0.817,1.617 2.129,3.68 1.283,5.283c-0.715,1.355 -2.107,-0.418 -12.667,14.354c-3.115,4.357 -1.718,4.97 -5.395,8.672c-3.711,3.737 2.621,4.66 0.217,9.257c-1,1.912 -3.781,-0.381 -16.25,21.521c-3.13,5.498 -2.125,5.879 -6.794,10.478c-3.656,3.601 2.805,4.684 0.268,9.275c-0.749,1.355 -3.168,-1.266 -13.48,13.893c-3.003,4.413 -1.441,5.213 -5.168,8.797c-3.751,3.607 2.503,4.674 -0.014,9.196c-0.753,1.352 -2.718,-0.767 -13.407,13.936c-2.918,4.014 1.848,4.789 -0.526,8.891c-2.574,4.447 -5.136,0.807 -8.413,5.127c-3.081,4.062 -1.517,7.957 -1.572,8.037c-0.425,0.614 -2.094,-1.621 -7.403,5.679c-1.402,1.928 -4.199,13.318 -14.426,22.488c-1.967,1.764 0.517,3.335 -17.938,27.733c-1.773,2.344 -1.406,2.539 -20.746,30.319c-0.516,0.741 -1.346,1.217 -1.895,1.934c-4.433,5.793 -1.716,7.558 -7.455,11.643c-4.655,3.313 -1.52,5.894 -43.051,56.989c-5.449,6.703 -2.714,8.58 -10.065,13.072c-5.172,3.16 0.416,7.574 -62.419,79.131c-2.261,2.575 -0.356,3.864 -25.513,34.413c-39.449,47.905 -42.459,44.606 -82.41,91.506c-22.745,19.245 -15.889,26.018 -268.489,258.098c-21.601,19.846 -122.555,105.7 -129.118,108.784c-20.695,9.726 -15.066,14.8 -21.785,36.496c-6.184,19.968 -7.085,50.266 -7.216,54.676c-0.053,1.777 2.317,3.253 1.905,4.983c-0.476,1.996 -3.596,2.558 -4.171,4.528c-3.736,12.788 -6.493,45.895 -6.828,49.911c-0.769,9.228 1.798,8.829 1.606,9.582c-1.564,6.117 -5.87,4.855 -6.307,22.548c-0.526,21.281 -1.551,20.883 -6.48,41.532c-6.06,25.387 -0.304,25.366 -0.887,27.488c-1.86,6.762 -4.717,5.444 -5.779,13.396c-3.948,29.553 -5.71,35.946 -5.165,41.125c0.19,1.809 2.508,3.279 2.077,5.047c-0.498,2.041 -3.897,2.468 -4.406,4.507c-4.252,17.027 0.333,26.605 0.101,27.589c-0.495,2.101 -4.069,2.395 -4.691,4.462c-0.334,1.109 -2.398,21.822 -2.265,22.591c0.913,5.258 -0.864,4.593 -2.221,9.447c-0.609,2.181 -2.417,21.3 -2.194,22.492c2.103,11.23 -5.366,12.08 -4.826,27.535c0.064,1.83 2.714,3.225 2.272,5.002c-0.52,2.09 -4.028,2.434 -4.635,4.5c-0.444,1.51 -2.178,21.3 -1.989,22.459c1.764,10.801 -4.589,12.983 -4.866,36.718c-0.021,1.836 2.766,3.195 2.348,4.983c-0.486,2.08 -3.952,2.452 -4.564,4.499c-1.723,5.763 -1.981,11.906 -2.137,17.919c-0.791,30.536 -8.574,29.206 -9.209,59.482c-0.038,1.824 2.522,3.298 2.073,5.066c-0.523,2.059 -3.905,2.471 -4.505,4.509c-1.698,5.769 -1.962,11.907 -2.095,17.919c-0.496,22.502 -10.949,63.553 -12.333,68.986c-3.319,13.032 0.778,12.776 0.503,13.85c-1.173,4.573 -6.46,3.235 -6.647,22.409c-0.018,1.843 2.604,3.291 2.176,5.083c-0.49,2.054 -3.874,2.47 -4.463,4.498c-0.526,1.811 -2.262,21.15 -2.052,22.543c1.735,11.494 -5.024,11.389 -4.804,27.388c0.027,1.947 3.135,3.306 2.667,5.196c-0.534,2.16 -4.254,2.297 -5.036,4.38c-0.311,0.829 -1.935,17 -1.797,17.907c2.161,14.185 -7.794,13.13 -4.764,27.352c0.415,1.945 3.274,3.528 2.567,5.387c-0.368,0.966 -1.728,-0.307 -8.692,9.56c-3.165,4.485 1.732,8.158 -48.005,53.351c-8.47,7.696 -88.636,80.539 -109.388,92.182c-7.435,4.171 -19.845,20.126 -27.487,22.858c-6.742,2.41 -4.034,6.166 -71.368,57.427c-2.867,2.182 -2.285,2.641 -34.999,28.338c-20.654,16.223 -20.113,16.316 -40.939,32.322c-148.225,113.92 -205.854,197.216 -250.776,193.728c-73.746,-5.727 -62.53,-58.324 -62.643,-247.446c-0.325,-545.479 2.235,-546.674 -2.564,-553.102c-6.189,-8.289 -8.296,-6.133 -92.043,-90.826c-18.57,-18.78 -23.056,-23.109 -47.687,-4.701c-5.226,3.906 -4.369,4.448 -10.476,7.299c-23.087,10.778 -173.759,134.224 -205.626,132.381c-37.481,-2.167 -32.58,-14.592 -200.301,-178.824c-4.448,-4.356 -4.453,-4.196 -4.807,-4.594c-2.316,-2.603 -2.773,-1.644 -4.928,-4.125c-0.827,-0.952 0.222,-3.032 -0.856,-3.687c-1.375,-0.835 -3.445,1.074 -4.82,0.239c-1.024,-1.264 1.313,-3.608 0.289,-4.872c-29.146,-35.973 -49.256,-47.841 -54.387,-50.869c-1.36,-1.686 -203.83,-210.722 -269.99,-265.731c-3.589,-4.288 -61.36,-45.46 -20.33,-101.085c4.289,-5.815 1.673,-7.513 7.609,-11.599c8.568,-5.897 3.201,-10.378 78.956,-103.294c1.536,-1.884 -1.237,-3.088 16.442,-25.557c2.404,-3.055 27.222,-34.595 30.862,-37.535c15.463,-12.488 4.452,-23.49 3.032,-24.909c-64.89,-64.838 -67.914,-67.041 -74.614,-71.925c-13.338,-11.545 -16.201,-5.835 -651.23,-7.354c-118.051,-0.282 -125.685,7.217 -152.157,-27.463c-4.083,-5.349 -15.973,-33.002 -4.035,-60.392c2.65,-6.081 -0.666,-9.23 -0.488,-9.545c0.004,-0.007 3.275,3.637 29.663,-30.418c27.985,-36.116 32.438,-32.127 58.98,-69.149c19.14,-15.162 222.261,-254.814 258.537,-294.983c2.96,-3.277 2.094,-3.909 36.166,-41.701c0.709,-0.786 -0.241,-1.265 7.731,-10.737c61.606,-73.196 67.106,-67.957 72.028,-74.638c7.79,-10.574 10.954,-6.883 393.719,-74.679c35.645,-6.313 435.459,-77.13 444.451,-84.939c7.081,-6.149 4.401,-8.332 73.572,-91.264c64.583,-77.432 67.737,-74.307 133.017,-150.876Z" style="fill:#116d9e;"/><path d="M4023.786,286.492c-5.726,99.945 -7.517,203.337 -78.17,494.726c-39.519,162.987 -125.782,489.653 -333.861,815.663c-30.885,48.39 -161.737,262.935 -519.16,584.754c-334.81,301.459 -528.58,436.685 -687.944,575.189c-6.864,5.965 -79.794,69.349 -90.247,69.114c-3.271,-0.074 -4.077,0.297 -124.114,-122.041c-131.648,-134.171 -134.118,-131.135 -263.925,-267.082c-13.673,-14.32 2.201,-15.823 148.888,-164.747c469.488,-476.646 478.56,-472.392 486.406,-507.015c12.833,-56.629 -62.933,-94.186 -104.443,-53.884c-84.648,82.185 -293.427,294.525 -342.445,339.606c-5.096,4.687 -279.257,285.998 -285.521,286.879c-1.549,0.218 -3.022,1.291 -84.766,-80.575c-19.028,-19.057 -123.234,-123.418 -239.298,-236.759c-2.245,-2.192 -26.897,-23.585 -22.413,-30.06c3.381,-4.883 295.811,-372.917 321.561,-405.324c171.223,-215.49 330.409,-433.588 644.043,-734.079c384.069,-367.974 944.223,-507.52 1119.769,-557.273c312.201,-88.483 454.806,-90.407 456.339,-88.149c1.842,2.713 -0.488,74.575 -0.698,81.057Z" style="fill:#d5f5fe;fill-opacity:1;"/><path d="M3156.664,659.161c7.613,0.113 15.228,-0.11 22.84,0.003c148.235,2.191 300.449,95.067 367.169,240.277c180.75,393.382 -283.265,740.775 -603.741,511.079c-331.117,-237.323 -162.123,-732.917 213.732,-751.359Z" style="fill:#106d9e;"/><path d="M1339.805,2674.021c59.599,27.063 77.226,55.764 126.699,90.118c5.096,3.539 3.99,4.082 54.927,54.751c3.126,3.11 0.49,5.21 36.588,41.225c18.602,18.56 59.565,79.278 64.387,86.425c-25.818,28.367 -29.889,27.839 -37.196,81.702c-4.147,30.571 -30.192,222.583 -178.532,341.825c-47.902,38.505 -55.003,29.663 -55.178,24.826c-0.913,-25.22 16.813,-149.71 -76.363,-144.3c-68.354,3.968 -151.539,184.619 -458.018,280.144c-15.731,4.903 -13.553,-2.298 -13.141,-3.3c12.169,-29.65 70.01,-129.47 97.274,-158.99c19.258,-20.852 49.884,-44.373 31.024,-92.978c-27.584,-71.091 -145.295,2.798 -144.604,-31.959c3.546,-178.505 118.847,-511.492 473.754,-537.759c41.44,-3.067 50.825,-9.704 54.472,-12.283c12.698,-8.979 9.77,-12.343 23.905,-19.447Z" style="fill:#fecf5e;"/><path d="M1339.805,2674.021c-14.135,7.104 -11.207,10.468 -23.905,19.447c-3.647,2.579 -13.033,9.216 -54.472,12.283c-354.907,26.267 -470.208,359.254 -473.754,537.759c-0.69,34.757 117.02,-39.132 144.604,31.959c18.859,48.604 -11.766,72.126 -31.024,92.978c-27.264,29.52 -85.105,129.34 -97.274,158.99c-0.412,1.003 -2.59,8.203 13.141,3.3c306.479,-95.525 389.664,-276.175 458.018,-280.144c93.176,-5.409 75.45,119.08 76.363,144.3c0.175,4.837 7.276,13.68 55.178,-24.826c148.34,-119.242 174.385,-311.254 178.532,-341.825c7.306,-53.862 11.378,-53.334 37.196,-81.702c18.738,0.663 46.08,-12.642 77.248,23.532c43.628,50.637 -37.235,301.893 -134.873,411.801c-1.196,1.346 -5.792,10.651 -6.875,11.757c-23.883,24.372 -115.386,120.664 -241.125,162.044c-39.31,12.937 -104.431,-22.809 -81.836,-87.412c2.468,-7.057 6.605,-48.712 -9.308,-31.659c-73.571,78.838 -227.486,165.274 -348.337,205.95c-52.272,17.594 -134.646,31.445 -137.204,32.304c-41.185,13.836 -124.55,-20.7 -92.659,-92.826c9.827,-22.225 36.089,-65.673 59.49,-128.243c1.491,-3.987 40.639,-60.472 37.829,-64.154c-3.929,-5.149 -58.884,24.931 -83.838,-49.53c-2.198,-6.558 -0.552,-65.79 -1.246,-105.621c-0.252,-14.46 4.684,-13.453 4.821,-27.523c0.814,-83.691 37.788,-226.585 124.87,-357.468c7.632,-11.47 43.998,-66.128 111.383,-131.35c4.368,-4.228 5.912,-1.884 63.794,-41.277c95.012,-64.662 187.737,-82.107 205.213,-85.395c94.707,-17.818 95.229,-24.101 118.855,-15.391c21.231,7.827 33.82,-0.314 51.577,40.025c4.122,9.364 -2.019,50.037 -0.382,57.916Z" style="fill:#116d9f;"/><path d="M2797.571,3028.228c-24.636,144.736 -22.263,157.414 -30.263,164.754c-7.802,7.158 -399.585,335.015 -402.616,335.134c-4.229,0.166 -3.382,-3.145 -3.965,-257.072c-0.058,-25.265 -0.685,-298.223 -0.059,-315.809c0.382,-10.745 4.859,-8.897 396.155,-322.428c111.597,-89.418 119.366,-101.144 118.89,-89.26c-0.584,14.593 -71.749,445.93 -78.143,484.682Z" style="fill:#bdeaf6;fill-opacity:1;"/><path d="M1412.339,1502.079c87.48,-15.119 87.137,-14.608 174.327,-29.31c161.977,-27.312 164.607,-34.135 167.549,-27.858c1.083,2.311 -324.912,413.972 -353.322,449.846c-27.317,34.496 -22.125,47.957 -66.133,47.894c-359.645,-0.514 -552.636,0.237 -553.288,-0.219c-5.733,-4.014 -0.435,-4.859 6.654,-14.181c61.514,-80.883 137.587,-166.097 150.076,-180.087c136.527,-152.932 152.807,-191.249 181.682,-196.399c146.302,-26.098 146.342,-23.961 292.456,-49.685Z" style="fill:#beebf6;fill-opacity:1;"/><path d="M3174.95,1359.577c-289.624,-10.72 -376.1,-371.465 -161.781,-516.9c267.354,-181.423 582.86,151.765 383.989,408.02c-81.274,104.725 -202.421,108.297 -222.208,108.88Z" style="fill:#d7f5fe;"/><path d="M1866.784,2807.704c-4.867,-5.02 -17.913,-18.477 -61.553,-62.054c-322.668,-322.202 -322.952,-321.408 -350.919,-349.471c-10.731,-10.768 -3.279,-12.325 6.357,-24.183c83.364,-102.582 82.843,-102.916 90.47,-111.505c13.945,-15.703 16.065,1.265 101.128,84.208c206.909,201.75 202.193,205.913 341.064,341.015c23.272,22.64 43.261,27.86 17.203,47.549c-82.617,62.423 -113.082,88.23 -118.447,91.975c-5.343,3.73 -12.196,-4.237 -25.303,-17.533Z" style="fill:#bdeaf6;fill-opacity:1;"/><path d="M442.915,3875.977c36.31,-27.948 81.482,-129.796 150.15,-96.572c35.029,16.948 40.514,61.751 24.754,83.204c-3.139,4.272 -1.37,5.448 -5.988,8.379c-6.372,4.044 -2.04,7.964 -60.439,72.434c-141.792,156.532 -182.402,167.515 -186.866,174.727c-5.371,8.677 -6.514,6.894 -14.884,12.192c-77.218,48.884 -202.078,129.054 -231.474,46.548c-9.533,-26.755 4.045,-55.141 9.59,-62.177c9.552,-12.119 48.846,-20.387 95.42,-50.611c14.557,-9.447 25.415,-16.714 27.613,-18.186c4.268,-2.857 3.18,-4.109 8.543,-5.379c1.286,-0.305 -0.228,-2.332 13.569,-9.423c4.886,-2.511 2.207,-5.646 54.753,-41.444c10.244,-6.979 67.603,-61.064 80.945,-74.691c14.75,-15.064 14.116,-15.3 34.315,-39.002Z" style="fill:#116e9f;"/></g></svg>