<?xml version="1.0" encoding="UTF-8" standalone="no"?><!DOCTYPE svg PUBLIC "-//W3C//DTD SVG 1.1//EN" "http://www.w3.org/Graphics/SVG/1.1/DTD/svg11.dtd"><svg width="100%" height="100%" viewBox="0 0 2038 2138" version="1.1" xmlns="http://www.w3.org/2000/svg" xmlns:xlink="http://www.w3.org/1999/xlink" xml:space="preserve" xmlns:serif="http://www.serif.com/" style="fill-rule:evenodd;clip-rule:evenodd;stroke-linejoin:round;stroke-miterlimit:2;"><rect id="Artboard1" x="0" y="0" width="2037.5" height="2137.5" style="fill:none;"/><g id="ChatGPT-Image-Nov-16--2025-at-12_54_18-PM.png" serif:id="ChatGPT Image Nov 16, 2025 at 12_54_18 PM.png"><path d="M1067.39,904.664c5.876,-13.468 4.085,-13.966 10.776,-27.04c105.581,-206.311 326.265,-193.885 345.163,-184.667c28.794,14.047 -12.21,215.382 -208.688,280.117c-106.509,35.092 -150.24,7.005 -150.387,29.006c-0.221,33.035 -1.23,54.137 4.827,56.899c1.896,0.864 633.86,-0.289 641.396,0.774c46.741,6.595 45.401,32.803 43.443,175.664c-2.44,178.026 30.106,390.15 -120.497,594.41c-251.165,340.648 -740.123,376.937 -1032.484,190.742c-357.863,-227.912 -320.499,-527.637 -320.402,-726.823c0.1,-205.255 -5.192,-216.175 29.307,-230.588c20.082,-8.39 591.734,-1.929 654.646,-3.84c11.452,-0.348 6.72,-62.997 4.049,-65.3c-2.47,-2.13 -2.511,-1.077 -28.949,-1.344c-287.6,-2.907 -357.069,-268.255 -334.457,-295.618c9.173,-11.1 204.901,-36.358 327.867,145.462c31.64,46.783 29.33,57.467 33.533,66.571c5.753,12.46 4.923,-8.974 4.227,-61.175c-2.838,-212.801 7.188,-233.027 -6.585,-221.824c-15.844,12.887 -60.886,33.082 -107.534,23.933c-128.394,-25.18 -133.139,-181.241 -66.54,-226.551c21.339,-14.518 -21.02,-2.629 -61.959,-27.406c-149.24,-90.322 -28.286,-309.055 120.685,-237.654c30.246,14.497 26.861,19.614 32.626,22.45c13.242,6.514 2.431,-5.69 1.386,-20.557c-12.351,-175.777 188.408,-196.632 246.977,-86.612c27.501,51.66 15.068,98.03 14.967,99.161c-0.962,10.749 16.6,-7.614 33.086,-14.923c142.61,-63.23 244.714,114.237 164.461,205.454c-67.311,76.507 -136.167,37.248 -105.385,57.48c76.297,50.15 60.582,190.316 -38.791,223.521c-81.849,27.35 -127.901,-23.904 -134.473,-17.884c-0.237,0.217 -1.009,0.264 -0.358,200.581c0.223,68.539 -6.495,72.217 4.068,77.579Zm-48.628,1119.484c27.198,-0.81 192.918,-5.742 329.693,-83.614c11.636,-6.625 84.573,-48.151 135.504,-98.237c188.212,-185.09 164.588,-363.5 164.574,-552.709c-0.009,-121.623 1.928,-127.828 -8.955,-127.943c-371.684,-3.92 -1146.164,-0.53 -1245.83,-0.094c-9.344,0.041 -9.695,2.041 -9.713,11.381c-0.049,24.335 -0.534,264.642 0.148,304.186c0.49,28.467 3.336,193.655 127.376,332.321c210.744,235.595 486.384,214.599 507.204,214.709Zm-8.384,-1541.557c202.813,-6.693 162.677,-276.144 -12.298,-257.993c-140.408,14.565 -159.177,241.381 12.298,257.993Z" style="fill:#55b850;"/><path d="M1002.058,1770.396c244.678,-2.96 238.042,-169.247 312.427,-130.64c67.241,34.899 -56.305,158.434 -137.88,194.6c-203.714,90.316 -419.774,-16.886 -473.694,-140.926c-16.722,-38.468 29.094,-95.079 84.704,-27.171c42.821,52.29 106.56,98.439 214.443,104.137Z" style="fill:#56b950;"/><path d="M1417.186,1418.469c-54.293,170.681 -288.654,98.731 -278.658,-20.686c2.91,-34.759 55.385,-57.974 83.38,-11.737c2.644,4.366 18.31,49.004 71.543,39.563c37.198,-6.597 49.254,-89.841 103.799,-59.814c28.62,15.755 20.106,51.137 19.935,52.675Z" style="fill:#55b950;"/><path d="M616.288,1406.21c0.27,-4.152 2.288,-35.14 28.112,-43.759c56.172,-18.747 60.497,59.921 103.651,63.416c47.962,3.884 56.928,-21.182 67.651,-39.797c28.634,-49.709 96.772,-23.169 78.847,37.081c-44.463,149.454 -263.568,109.828 -278.261,-16.941Z" style="fill:#56b950;"/></g></svg>