<?xml version="1.0" encoding="UTF-8" standalone="no"?><!DOCTYPE svg PUBLIC "-//W3C//DTD SVG 1.1//EN" "http://www.w3.org/Graphics/SVG/1.1/DTD/svg11.dtd"><svg width="100%" height="100%" viewBox="0 0 139 222" version="1.1" xmlns="http://www.w3.org/2000/svg" xmlns:xlink="http://www.w3.org/1999/xlink" xml:space="preserve" xmlns:serif="http://www.serif.com/" style="fill-rule:evenodd;clip-rule:evenodd;stroke-linejoin:round;stroke-miterlimit:2;"><g><path d="M118.103,178.563l0,15.149c0,15.514 -12.596,28.11 -28.11,28.11c-15.514,0 -28.11,-12.596 -28.11,-28.11l0,-9.383c0,-4.142 3.358,-7.5 7.5,-7.5c1.248,0 2.48,-0.068 3.693,-0.2c0.27,-0.029 0.541,-0.044 0.812,-0.044l16.105,-0c6.137,-0 11.893,-1.641 16.852,-4.512c2.32,-1.343 5.181,-1.346 7.504,-0.007c2.323,1.339 3.754,3.816 3.754,6.498Zm-41.22,13.022l0,2.127c0,7.236 5.874,13.11 13.11,13.11c7.236,0 13.11,-5.874 13.11,-13.11l-0,-3.915c-4.172,1.165 -8.569,1.788 -13.11,1.788l-13.11,-0Z" style="fill:url(#_Linear1);"/><path d="M138.713,78.512l-0,0c0,0.016 0,0.033 0,0.049l-7.398,7.42c0.632,-0.078 4.049,-0.609 6.01,-3.142c-1.343,1.885 -3.537,3.123 -6.021,3.152l-0.091,0.092c-3.197,0 -5.928,-2.001 -7.007,-4.82c0.227,0.578 0.523,1.086 0.864,1.532c-0.855,-1.218 -1.357,-2.702 -1.357,-4.304c-0,0.514 0.042,0.992 0.121,1.439c-0.078,-0.43 -0.119,-0.872 -0.121,-1.324c-0.025,-8.006 -2.845,-15.358 -7.536,-21.131c-6.186,-7.612 -15.62,-12.482 -26.183,-12.482c-4.142,0 -7.5,-3.358 -7.5,-7.5l0,-9.383c0,-15.514 12.596,-28.11 28.11,-28.11c15.514,0 28.11,12.596 28.11,28.11l0,50.383c-0,0.006 -0,0.013 -0,0.019Zm-14.507,2.752c-0.161,-0.408 -0.288,-0.852 -0.372,-1.333c0.083,0.46 0.209,0.906 0.372,1.333Zm14.507,-2.703c-0.014,1.842 -0.576,3.231 -1.387,4.279c0.861,-1.209 1.373,-2.685 1.387,-4.279Zm-15,-35.002l-0,-15.449c0,-7.236 -5.874,-13.11 -13.11,-13.11c-7.236,0 -13.11,5.874 -13.11,13.11l-0,2.458c10.095,1.562 19.171,6.228 26.22,12.991Z" style="fill:url(#_Linear2);"/><path d="M48.774,86.084l-0.102,-0.103c0,0 0.001,0 0.001,0l-7.398,-7.469c0,-0.006 0,-0.012 0,-0.019l-0.001,-0.001l0,-50.383c0,-15.514 12.596,-28.11 28.11,-28.11c15.514,0 28.11,12.596 28.11,28.11l0,9.383c-0,4.142 -3.358,7.5 -7.5,7.5c-10.563,0 -19.998,4.87 -26.183,12.482c-4.691,5.773 -7.512,13.126 -7.536,21.131c-0.013,4.133 -3.367,7.477 -7.5,7.477Zm-7.5,-7.523c-0,-0.016 -0,-0.033 -0,-0.049l0,0c-0,0.016 -0,0.033 -0,0.049Zm7.398,7.42c-0.893,-0.11 -7.35,-1.125 -7.398,-7.42l7.398,7.42Zm7.602,-42.423c7.048,-6.763 16.124,-11.429 26.22,-12.991l0,-2.458c0,-7.236 -5.874,-13.11 -13.11,-13.11c-7.236,0 -13.11,5.874 -13.11,13.11l-0,15.449Z" style="fill:url(#_Linear3);"/><path d="M76.856,193.712c0,15.514 -12.596,28.11 -28.11,28.11c-15.514,0 -28.11,-12.596 -28.11,-28.11l0,-15.118c0,-2.679 1.429,-5.155 3.749,-6.495c2.32,-1.34 5.179,-1.34 7.499,-0.002c4.948,2.855 10.689,4.487 16.808,4.487l16.159,-0c0.271,-0 0.542,0.015 0.812,0.044c1.213,0.132 2.445,0.2 3.693,0.2c4.142,0 7.5,3.358 7.5,7.5l0,9.383Zm-15,-2.127l-13.164,0c-4.522,0 -8.9,-0.618 -13.056,-1.773l0,3.9c0,7.236 5.874,13.11 13.11,13.11c7.236,0 13.11,-5.874 13.11,-13.11l0,-2.127Z" style="fill:url(#_Linear4);"/><path d="M24.415,185.09c-14.59,-8.419 -24.415,-24.184 -24.415,-42.225c0,-26.889 21.831,-48.72 48.72,-48.72l41.273,0c26.889,-0 48.72,21.831 48.72,48.72c0,18.015 -9.796,33.761 -24.352,42.188c-7.17,4.152 -15.493,6.531 -24.368,6.531l-41.273,0c-8.848,0 -17.148,-2.365 -24.304,-6.494Zm7.496,-12.992c4.948,2.855 10.689,4.487 16.808,4.487l41.273,0c6.137,-0 11.893,-1.641 16.852,-4.512c10.078,-5.835 16.868,-16.734 16.868,-29.207c0,-18.61 -15.109,-33.72 -33.72,-33.72l-41.273,0c-18.61,0 -33.72,15.109 -33.72,33.72c0,12.492 6.809,23.404 16.912,29.233Z" style="fill:url(#_Linear5);"/><path d="M138.713,78.572l0,0.129l0,0.012l0,64.152c0,26.889 -21.831,48.72 -48.72,48.72c-26.889,0 -48.72,-21.831 -48.72,-48.72l0,-64.152l0,-0.012l0,-0.129l0,-0.012c0.036,-11.572 4.114,-22.2 10.895,-30.545c8.935,-10.995 22.566,-18.023 37.824,-18.023c15.258,0 28.889,7.027 37.824,18.023c6.781,8.345 10.86,18.973 10.895,30.545l0,0.012Zm-15,0.031c-0.025,-8.004 -2.846,-15.355 -7.536,-21.127c-6.186,-7.612 -15.62,-12.482 -26.183,-12.482c-10.563,0 -19.998,4.87 -26.183,12.482c-4.69,5.772 -7.511,13.123 -7.536,21.127l-0,0.116l0,64.146c0,18.61 15.109,33.72 33.72,33.72c18.61,0 33.72,-15.109 33.72,-33.72l-0,-64.146l-0,-0.116Z" style="fill:url(#_Linear6);"/></g><defs><linearGradient id="_Linear1" x1="0" y1="0" x2="1" y2="0" gradientUnits="userSpaceOnUse" gradientTransform="matrix(118.076067,-168.985935,168.985935,118.076067,20.636751,184.933124)"><stop offset="0" style="stop-color:#17ceb0;stop-opacity:1"/><stop offset="1" style="stop-color:#164379;stop-opacity:1"/></linearGradient><linearGradient id="_Linear2" x1="0" y1="0" x2="1" y2="0" gradientUnits="userSpaceOnUse" gradientTransform="matrix(118.076067,-168.985935,168.985935,118.076067,20.636751,184.933124)"><stop offset="0" style="stop-color:#17ceb0;stop-opacity:1"/><stop offset="1" style="stop-color:#164379;stop-opacity:1"/></linearGradient><linearGradient id="_Linear3" x1="0" y1="0" x2="1" y2="0" gradientUnits="userSpaceOnUse" gradientTransform="matrix(118.076067,-168.985935,168.985935,118.076067,20.636751,184.933124)"><stop offset="0" style="stop-color:#17ceb0;stop-opacity:1"/><stop offset="1" style="stop-color:#164379;stop-opacity:1"/></linearGradient><linearGradient id="_Linear4" x1="0" y1="0" x2="1" y2="0" gradientUnits="userSpaceOnUse" gradientTransform="matrix(118.076067,-168.985935,168.985935,118.076067,20.636751,184.933124)"><stop offset="0" style="stop-color:#17ceb0;stop-opacity:1"/><stop offset="1" style="stop-color:#164379;stop-opacity:1"/></linearGradient><linearGradient id="_Linear5" x1="0" y1="0" x2="1" y2="0" gradientUnits="userSpaceOnUse" gradientTransform="matrix(118.076067,-168.985935,168.985935,118.076067,20.636751,184.933124)"><stop offset="0" style="stop-color:#17ceb0;stop-opacity:1"/><stop offset="1" style="stop-color:#164379;stop-opacity:1"/></linearGradient><linearGradient id="_Linear6" x1="0" y1="0" x2="1" y2="0" gradientUnits="userSpaceOnUse" gradientTransform="matrix(118.076067,-168.985935,168.985935,118.076067,20.636751,184.933124)"><stop offset="0" style="stop-color:#17ceb0;stop-opacity:1"/><stop offset="1" style="stop-color:#164379;stop-opacity:1"/></linearGradient></defs></svg>