<?xml version="1.0" encoding="UTF-8" standalone="no"?><!DOCTYPE svg PUBLIC "-//W3C//DTD SVG 1.1//EN" "http://www.w3.org/Graphics/SVG/1.1/DTD/svg11.dtd"><svg width="100%" height="100%" viewBox="0 0 2919 2851" version="1.1" xmlns="http://www.w3.org/2000/svg" xmlns:xlink="http://www.w3.org/1999/xlink" xml:space="preserve" xmlns:serif="http://www.serif.com/" style="fill-rule:evenodd;clip-rule:evenodd;stroke-linejoin:round;stroke-miterlimit:2;"><g id="Background"><path d="M6.756,2671.303c-5.223,-44.138 -4.925,-43.728 -4.871,-1737.293c0.003,-90.854 -33.026,-305.226 177.301,-328.226c17.661,-1.931 885.294,-0.559 962.276,-0.438c201.224,0.318 145.382,166.803 281.923,201.337c45.031,11.389 1103.512,-3.045 1137.037,7.824c145.426,47.145 126.815,189.925 126.828,256.997c0.316,1588.661 -0.856,1588.845 -5.941,1625.466c-5.831,41.993 -51.461,123.231 -146.794,146.665c-41.706,10.252 -42.335,6.384 -536.812,6.307c-1500.817,-0.233 -1500.749,1.165 -1631.244,-0.017c-159.544,-1.446 -324.411,27.196 -359.703,-178.623Z" style="fill:#efd3ab;"/><path d="M319.317,1615.19c-0.561,-345.811 -5.732,-346.299 1.681,-375.403c29.219,-114.717 121.684,-102.025 145.466,-102.529c241.184,-5.11 615.265,-1.016 668.763,-0.43c45.644,0.5 167.564,-18.956 200.657,90.715c8.527,28.259 7.736,28.67 3.954,368.95c-0.14,12.576 -1.175,105.753 -85.663,131.824c-27.614,8.521 -28.098,7.963 -718.965,7.794c-58.722,-0.014 -201.045,21.834 -215.893,-120.921Z" style="fill:#b08251;"/><path d="M1985.197,1131.112c28.013,-0.062 312.83,-0.691 350.162,0.074c61.343,1.258 120.343,56.262 120.955,121.486c3.517,375.068 4.3,376.509 -10.068,405.615c-45.4,91.971 -122.458,77.838 -254.78,77.814c-616.134,-0.113 -616.219,0.403 -625.117,-1.478c-130.431,-27.567 -110.418,-150.447 -110.409,-175.622c0.118,-333.409 -6.519,-339.599 31.871,-385.184c43.629,-51.805 55.357,-42.595 497.386,-42.705Z" style="fill:#b08251;"/><path d="M1332.479,2046.513c-0.077,282.245 2.997,282.596 -2.616,306.463c-29.079,123.629 -139.23,103.775 -282.152,103.823c-628.217,0.211 -628.196,-0.421 -649.008,-7.126c-83.391,-26.866 -84.343,-110.051 -84.479,-121.917c-4.174,-364.801 -0.085,-371.635 16.32,-399.053c48.797,-81.553 111.982,-65.001 273.409,-66.673c49.51,-0.513 505.909,-5.242 618.905,1.025c28.882,1.602 108.348,38.803 109.14,120.919c0.303,31.371 -0.116,30.942 0.481,62.539Z" style="fill:#b08251;"/><path d="M2341.129,2456.285c-69.433,0.574 -778.952,1.321 -786.484,-0.322c-124.492,-27.146 -101.983,-168.654 -102.021,-221.96c-0.207,-286.571 -8.455,-307.35 61.825,-353.055c35.83,-23.301 39.07,-19.268 439.522,-19.756c400.63,-0.488 401.594,-0.158 429.95,13.094c85.558,39.987 71.141,117.072 71.178,347.213c0.017,102.252 19.33,208.19 -113.97,234.785Z" style="fill:#b08251;"/><path d="M2806.527,2508.669c-4.629,-103.585 -2.169,-103.019 -3,-1362.166c-0.248,-376.391 12.405,-411.543 -86.955,-437.875c-31.437,-8.331 -1201.829,3.428 -1262.417,-1.958c-94.194,-8.374 -108.991,-116.248 -164.931,-170.346c-23.928,-23.14 -29.031,-18.947 -535.273,-19.273c-194.002,-0.125 -203.725,2.768 -203.807,-14.38c-0.332,-69.678 -2.606,-113.48 91.337,-117.927c33.27,-1.575 636.973,-0.912 637.487,-0.888c123.375,5.763 146.43,169.094 213.54,197.103c8.667,3.617 1153.262,0.153 1236.49,1.883c94.748,1.97 155.181,77.378 179.592,145.545c10.07,28.119 9.069,29.073 9.088,1368.119c0.004,264.662 13.793,352.734 -71.686,410.192c-21.775,14.637 -31.439,27.243 -39.465,1.971Z" style="fill:#f0d4ac;"/><path d="M469.826,265.247c-3.141,121.833 7.767,248.655 -9.425,251.073c-4.129,0.581 -104.251,0.505 -106.632,0.291c-11.013,-0.991 -9.357,-7.242 -9.718,-220.112c-0.062,-36.335 -18.084,-170.964 92.745,-254.184c65.136,-48.91 72.745,-40.173 610.905,-41.622c301.181,-0.811 318.967,-8.326 379.155,54.092c60.149,62.377 70.643,150.089 139.578,151.358c50.994,0.938 50.494,-0.724 637.532,-0.552c339.864,0.1 340.231,-4.191 369.012,2.378c153.932,35.135 170.688,178.268 171.158,200.856c2.029,97.656 1.174,106.959 -21.422,107.019c-62.778,0.167 -96.672,4.577 -97.47,-13.252c-4.657,-104.027 18.514,-179.189 -152.532,-178.098c-76.514,0.488 -923.08,5.886 -956.437,-2.1c-154.686,-37.032 -107.585,-182.776 -256.064,-187.735c-52.471,-1.753 -51.841,2.149 -656.246,1.236c-83.957,-0.127 -130.607,15.708 -134.138,129.354Z" style="fill:#f0d4ac;"/><path d="M969.84,1427.742c-0.079,15.676 16.292,209.471 -152.847,184.566c-118.607,-17.464 -129.834,-302.4 -12.44,-338.735c72.038,-22.297 115.629,17.59 123.031,24.364c37.653,34.454 41.729,118.897 42.255,129.805Z" style="fill:#f0d5ae;"/><path d="M1857.345,1296.468c0.1,-1.482 1.067,-15.855 3.419,-18.251c9.149,-9.321 112.713,-3.62 118.497,-2.956c136.205,15.618 144.895,292.551 17.471,330.633c-52.471,15.682 -114.691,6.516 -124.557,5.063c-21.555,-3.175 -14.71,-59.371 -14.83,-314.488Z" style="fill:#f0d5ad;"/><path d="M669.827,1390.822c7.551,90.221 4.45,154.609 -60.64,204.213c-23.885,18.202 -152.035,30.569 -161.139,1.366c-0.349,-1.121 -1.494,-1.161 -1.204,-287.393c0.037,-36.399 13.696,-38.846 113.142,-34.984c36.423,1.415 63.86,25.504 68.333,29.431c25.307,22.219 39.64,79.857 41.507,87.366Z" style="fill:#f1d5ad;"/><path d="M1895.916,2123.335c-2.089,-0.083 -2.363,-4.334 -4.452,-4.417c-4.841,-0.192 -4.434,8.483 -4.395,9.306c4.257,90.715 2.598,90.11 2.451,180.777c-0.066,40.408 -52.064,28.125 -57.696,17.453c-4.404,-8.343 -1.876,-286.308 -1.649,-311.203c0.413,-45.401 62.257,-20.377 71.479,-4.94c2.551,4.27 78.984,152.918 80.46,157.1c0.503,1.423 18.48,52.341 15.761,10.375c-0.873,-13.478 -3.132,-48.346 -1.949,-168.812c0.276,-28.1 48.422,-17.124 57.463,-5.816c10.117,12.654 4.379,286.942 3.857,311.89c-0.591,28.263 -52.905,27.053 -66.347,0.519c-48.476,-95.687 -51.413,-93.546 -94.982,-192.233Z" style="fill:#f0d5ad;"/><path d="M1691.46,1481.197c-8.893,0.919 -28.153,-10.353 -28.495,21.549c-0.812,75.689 15.296,111.996 -40.178,109.603c-29.192,-1.259 -23,-15.958 -22.952,-172.102c0.046,-151.388 -6.268,-166.716 22.868,-166.747c85.219,-0.089 163.803,-13.932 187.545,60.492c2.066,6.475 7.623,66.572 -1.908,93.043c-23.147,64.287 -83.869,53.255 -116.879,54.162Z" style="fill:#f0d4ad;"/><path d="M735.266,1992.663c51.247,-0.3 179.971,-19.924 189.676,78.607c14.847,150.728 -91.517,128.952 -133.562,129.452c-21.813,0.26 -14.923,41.308 -14.923,70.786c0.001,48.313 6.259,68.448 -41.419,64.12c-27.358,-2.483 -22.353,-15.595 -22.275,-189.12c0.062,-136.979 -5.742,-149.148 22.503,-153.846Z" style="fill:#f0d5ad;"/><path d="M1597.898,1992.743c68.08,-0.717 203.824,-28.033 188.046,128.817c-12.313,122.399 -147.822,54.703 -148.302,93.754c-1.045,84.943 14.454,123.837 -40.042,120.382c-28.671,-1.818 -22.876,-16 -22.954,-195.438c-0.057,-129.779 -6.268,-141.139 23.253,-147.514Z" style="fill:#f1d5ad;"/><path d="M2282.556,2233.966c-0.061,-2.377 -0.695,-26.942 -4.789,-29.336c-17.993,-10.522 -53.292,20.865 -51.068,-39.468c0.882,-23.935 40.912,-16.928 77.234,-16.509c51.466,0.593 40.548,24.977 39.742,91.671c-1.045,86.543 -82.469,97.685 -102.28,97.028c-114.696,-3.806 -133.086,-76.491 -130.025,-190.818c5.762,-215.196 168.262,-155.824 191.417,-130.174c61.057,67.639 5.423,68.096 1.477,68.97c-47.04,10.426 -47.718,-64.24 -92.554,-36.238c-47.149,29.447 -36.936,114.831 -36.838,128.652c0.934,130.921 100.908,125.786 107.683,56.222Z" style="fill:#f1d5ae;"/><path d="M1097.814,2280.371c4.943,-0.694 40.678,-0.68 44.862,-40.005c5.677,-53.36 -21.194,-38.666 -38.668,-39.455c-3.577,-0.161 -25.815,-1.166 -14.272,-42.416c5.508,-19.682 100.204,-7.375 102.106,-6.633c8.004,3.124 15.409,6.013 9.82,106.955c-4.28,77.295 -145.669,112.368 -201.695,35.98c-50.976,-69.502 -60.451,-340.984 122.212,-302.406c42.225,8.918 93.926,80.217 62.46,89.745c-60.624,18.356 -49.891,-19.114 -76.08,-32.73c-86.122,-44.774 -116.323,222.571 -10.744,230.964Z" style="fill:#f1d6ae;"/><path d="M1153.695,1267.947c8.415,2.298 63.603,17.369 81.66,72.264c7.885,23.972 -44.389,36.144 -53.914,22.978c-1.193,-1.649 -25.137,-52.831 -64.78,-35.048c-63.89,28.659 -53.756,265.504 37.795,225.611c27.668,-12.056 17.253,-61.458 68.426,-38.878c59.475,26.244 -61.682,149.662 -160.57,79.012c-55.687,-39.786 -50.514,-142.525 -47.554,-197.531c0.581,-10.796 8.529,-59.465 29.153,-85.365c41.486,-52.097 101.085,-42.585 109.784,-43.043Z" style="fill:#f1d6ae;"/><path d="M2222.707,1330.641c-4.356,0.954 -8.975,0.152 -13.33,1.105c-8.848,1.937 -17.269,78.396 7.021,78.84c47.735,0.873 89.339,-12.748 89.794,29.641c0.544,50.601 -66.557,20.003 -96.869,28.877c-18.744,5.487 6.04,134.411 -17.463,140.853c-44.547,12.21 -53.6,1.12 -53.375,-44.721c0.61,-124.17 -1.961,-253.892 0.783,-275.446c2.176,-17.095 9.691,-17.027 158.449,-16.339c31.086,0.144 28.594,10.843 27.115,41.963c-0.842,17.713 -10.042,16.489 -102.126,15.226Z" style="fill:#f0d5ad;"/><path d="M644.838,2202.755c0.059,52.948 -0.127,107.856 -72.072,131.418c-99.068,32.444 -186.218,-114.756 -93.626,-101.542c16.062,2.292 45.413,73.286 86.371,37.751c36.278,-31.476 -3.463,-262.798 25.386,-274.994c6.418,-2.713 51.992,-9.407 53.365,19.657c0.606,12.839 0.579,172.695 0.577,187.712Z" style="fill:#f1d6ae;"/><path d="M794.191,1502.169c-4.654,-35.422 -27.713,-191.661 65.641,-178.257c60.289,8.656 65.023,220.324 0.208,234.351c-56.763,12.285 -65.542,-54.991 -65.849,-56.094Z" style="fill:#b08251;"/><path d="M1919.893,1390.262c-0.089,-7.059 -5.854,-57.675 9.268,-60.156c18.917,-3.104 46.4,7.875 50.193,9.39c57.871,23.118 73.355,224.025 -50.391,213.254c-12.97,-1.129 -11.808,-7.967 -9.071,-162.488Z" style="fill:#b08251;"/><path d="M607.434,1483.591c-10.9,35.208 -14.407,60.864 -78.379,70.016c-22.963,3.285 -17.814,-11.402 -17.923,-163.355c-0.031,-43.056 -12.64,-66.891 29.835,-59.854c83.052,13.759 69.311,109.275 66.466,153.194Z" style="fill:#b08251;"/><path d="M1729.81,1331.978c38.897,25.465 28.136,93.363 -19.652,93.561c-32.276,0.134 -46.687,9.703 -47.17,-22.775c-1.04,-69.929 -0.104,-76.233 15.949,-76.213c25.964,0.032 25.524,-0.402 50.873,5.427Z" style="fill:#b08251;"/><path d="M834.623,2144.018c-15.991,1.225 -57.451,9.98 -58.047,-9.806c-2.566,-85.175 6.597,-84.052 7.548,-84.348c0.685,-0.213 54.678,-7.392 69.616,9.328c3.03,3.391 13.192,14.766 8.389,56.216c-2.994,25.841 -25.303,27.725 -27.506,28.611Z" style="fill:#b08251;"/><path d="M1719.454,2070.579c10.528,66.404 -4.392,78.461 -71.695,75.584c-15.706,-0.671 -16.073,-96.063 0.205,-97.244c47.107,-3.417 62.201,0.756 71.491,21.66Z" style="fill:#b08251;"/></g></svg>