<?xml version="1.0" encoding="UTF-8" standalone="no"?><!DOCTYPE svg PUBLIC "-//W3C//DTD SVG 1.1//EN" "http://www.w3.org/Graphics/SVG/1.1/DTD/svg11.dtd"><svg width="100%" height="100%" viewBox="0 0 4267 4267" version="1.1" xmlns="http://www.w3.org/2000/svg" xmlns:xlink="http://www.w3.org/1999/xlink" xml:space="preserve" xmlns:serif="http://www.serif.com/" style="fill-rule:evenodd;clip-rule:evenodd;stroke-linejoin:round;stroke-miterlimit:2;"><g id="Background"><path d="M3479.565,964.943c110.272,237.955 -118.571,417.59 -165.553,465.004c-28.41,28.672 -258.694,261.076 -356.624,356.91c-54.127,52.969 -70.407,66.736 -58.708,71.153c105.384,39.792 153.148,101.408 185.643,188.523c7.713,32.861 9.917,32.134 12.707,70.979c-0.664,1.076 -3.054,67.259 -5.189,91.832c-1.53,17.61 76.678,4.02 156.863,92.94c35.243,39.082 29.806,42.494 51.798,90.157l12.997,114.003c-7.233,84.235 -32.776,82.84 -23.375,94.775c0.198,0.251 29.889,20.712 57.448,40.243c1.767,1.252 19.884,14.091 21.837,15.991c4.236,4.12 54.231,65.663 57.223,66.033c71.155,219.696 -57.316,336.05 -506.977,793.252c-210.207,213.732 -221.535,203.511 -318.945,247.463c-0.065,-2.979 -155.349,37.298 -199.325,38.998c-5.669,-4.445 -110.224,11.172 -172.576,-26.313c-5.405,-4.844 -171.453,-78.081 -266.051,-172.224c-17.464,-17.38 -211.887,-212.016 -237.27,-238.368c-61.401,-63.746 -62.815,-61.493 -124.541,-124.137c-49.422,-50.156 -424.48,-427.598 -438.714,-524.268c-1.936,-5.945 -12.158,-71.767 -11.99,-97.828c0.04,-6.263 1.099,-86.32 1.089,-86.444c-1.645,-20.435 31.668,-232.415 28.489,-248.651c-0.369,-1.886 16.073,-163.315 16.455,-172.973c1.319,-33.311 2.974,-207.048 -2.815,-226.816c-1.677,-5.728 -98.778,-481.591 -94.771,-486.692c0.668,-0.851 10.548,-35.972 14.705,-43.965c10.16,-19.534 18.926,-37.738 26.911,-49.152c12.858,-18.382 32.875,-48.864 81.747,-70.981c13.159,-5.955 59.244,-26.616 65.703,-25.609c7.953,1.239 56.57,-3.321 75.773,-4.546c27.449,-1.751 40.899,9.857 54.132,10.248c26.338,0.779 139.167,55.239 174.421,112.749c0.81,1.321 19.294,26.071 25.89,38.607c2.623,4.985 4.599,10.288 7.111,15.329c4.79,9.611 13.505,23.77 19.496,38.934c13.228,33.482 71.271,253.004 72.278,264.217c1.974,5.595 52.873,201.902 52.409,205.981c-1.15,10.108 44.752,152.506 63.586,137.986c7.844,-6.048 33.677,-36.745 49.388,-51.686c19.427,-18.473 18.744,-18.726 37.825,-37.945c125.72,-126.633 152.444,-150.722 166.289,-163.202c2.021,-1.821 277.794,-281.405 282.058,-285.689c7.372,-7.407 103.847,-101.598 107.575,-103.314c8.034,-9.873 430.765,-430.557 454.611,-453.415c40.212,-38.548 159.425,-105.336 173.523,-107.607c4.788,-0.771 45.532,-17.458 86.503,-16.071c29.406,0.996 134.473,19.374 135.487,20.358c3.233,3.138 5.317,-0.594 49.777,26.346c51.441,31.17 103.677,108.887 103.677,108.887Z" style="fill:#1a6a9c;"/><path d="M1344.723,1923.425c-0.876,-6.07 -1.01,-18.924 -1.204,-22.133c-10.328,-171.126 -27.055,-225.488 -38.795,-270.513c-23.72,-90.97 -52.02,-96.964 -51.128,-194.467c1.003,-109.693 172.16,-100.974 232.875,17.017c39.094,75.973 30.706,79.108 34.453,85.456c0.61,1.033 88.413,364.493 104.538,421.048c67.956,238.346 96.687,258.103 116.152,271.489c74.74,51.396 129.09,-25.168 141.162,-38.01c24.167,-25.709 62.073,-60.004 63.53,-61.093c22.739,-17.003 690.84,-687.814 791.033,-787.08c307.637,-304.795 304.277,-308.09 333.805,-331.417c136.074,-107.497 230.667,-17.921 239.492,-5.593c92.331,128.992 -36.776,226.449 -81.98,271.582c-388.21,387.595 -385.809,389.943 -420.49,422.689c-211.151,199.376 -214.839,216.702 -220.293,242.328c-3.402,15.982 4.293,15.787 1.506,31.875c-1.09,6.292 36.016,122.961 147.701,43.932c89.453,-63.297 177.013,21.177 192.51,86.396c21.588,90.849 -54.468,149.712 -67.267,168.252c-32.104,46.506 -3.469,97.528 14.6,112.691c63.22,53.051 119.13,0.461 136.043,-9.907c49.993,-30.646 113.439,17.491 124.488,47.135c33.814,90.718 -9.401,130.344 -81.689,200.72c-4.641,4.518 -9.515,11.754 -12.101,15.335c-37.083,51.356 -4.88,152.246 86.503,139.185c4.485,-1.474 8.605,-2.976 11.656,-3.831c28.165,-7.889 50.581,-56.146 107.474,-14.756c53.924,39.23 24.641,122.432 -10.663,171.411c-21.305,29.558 -29.078,45.529 -95.005,115.492c-30.422,32.285 -216.356,229.602 -390.223,393.954c-121.443,114.797 -174.495,198.712 -395.034,195.533c-112.947,-1.628 -173.247,-49.497 -185.444,-59.18c-79.819,-63.364 -77.896,-65.189 -150.272,-136.846c-34.342,-34.001 -370.778,-367.096 -427.614,-426.693c-60.264,-63.19 -193.433,-192.978 -210.209,-211.201c-19.597,-21.286 -26.653,-33.468 -29.03,-36.724c-72.232,-98.939 -41.175,-190.684 -44.571,-239.394c-0.157,-2.25 45.148,-313.088 33.493,-604.684Z" style="fill:#baf3fe;"/><path d="M2051.849,3846.598c0,0 -9.918,92.703 -10.122,93.254c-0.984,2.66 -5.665,9.087 -6.52,10.795c-6.282,12.545 -230.528,235.362 -244.081,248.596c-8.93,8.719 -10.501,5.588 -21.77,11.087c-6.016,2.144 -30.399,5.977 -38.221,8.926c-17.34,6.537 -42.984,-9.342 -43.443,-9.419c-10.61,-1.778 -106.903,-93.513 -109.007,-96.86c-1.273,-1.297 -482.822,-483.069 -520.187,-522.77c-5.665,-6.019 -5.953,-5.619 -73.383,-72.737c-157.285,-156.555 -212.818,-218.079 -217.431,-215.753c-24.343,-88.815 -12.574,-98.454 113.846,-228.43c153.165,-157.474 165.867,-180.357 238.213,-158.926c56.664,16.786 202.34,184.842 578.275,555.097c26.989,26.581 315.73,310.959 333.781,335.865c8.121,11.206 18.697,37.863 20.051,41.276Z" style="fill:#196a9c;"/><path d="M1638.742,3955.905c-5.224,-5.055 -546.478,-547.436 -557.165,-556.606c-9.141,-7.844 -30.147,-26.558 -53.066,-49.558c-27.093,-27.189 -25.72,-28.061 -53.56,-54.708c-39.366,-37.679 -41.212,-38.852 -38.416,-42.482c1.38,-1.792 147.908,-152.005 151.458,-151.884c2.994,0.103 390.21,390.295 530.497,529.311c19.987,19.806 235.235,233.103 248.976,248.442c9.117,10.178 13.343,12.311 3.498,22.016c-13.671,13.477 -13.767,12.767 -27.461,26.467c-2.229,2.229 -98.004,101.027 -106.524,109.815c-14.468,14.924 -15.921,-1.154 -98.237,-80.813Z" style="fill:#baf3fe;"/><path d="M2204.814,610.011c2.686,8.39 22.635,70.709 -31.699,105.457c-81.011,51.809 -120.713,-24.801 -275.777,-175.092c-10.76,-10.429 -33.099,-32.08 -133,-131.895c-81.217,-81.148 8.315,-190.951 86.43,-152.046c19.202,9.564 18.555,10.591 193.247,185.901c138.232,138.721 141.184,136.168 160.798,167.676Z" style="fill:#186799;"/><path d="M2575.68,89.8c8.516,34.916 9.915,40.651 7.001,449.191c-0.928,130.096 -123.09,140.314 -166.522,49.24c3.607,-1.825 6.672,-415.105 6.859,-449.259c0.194,-35.4 -2.934,-35.375 -2.072,-38.322c0.751,-2.566 7.5,-21.792 7.5,-21.792l26.634,-21.557c22.568,-18.661 68.118,-12.791 87.735,5.014c27.927,25.348 32.864,27.485 32.864,27.485Z" style="fill:#19699b;"/><path d="M2893.98,713.37c-0.793,1.189 -38.617,7.016 -50.262,0.416c-14.45,-8.19 -16.16,-9.199 -17.234,-10.529c-3.516,-4.354 -24.963,-13.46 -24.872,-45.401c0.165,-57.419 7.651,-57.02 48.489,-97.231c197.413,-194.384 193.732,-197.886 279.396,-277.749c8.507,-7.931 16.304,-13.485 22.25,-16.201c40.344,-18.429 88.735,27.951 88.767,28.079c0.615,2.473 3.207,3.997 4.42,6.239c6.896,12.749 5.055,12.892 6.91,27.017c4.389,33.419 -14.227,51.401 -17.526,54.587c-21.56,20.824 -195.535,188.86 -264.821,265.057c-62.604,68.849 -71.072,59.054 -75.517,65.716Z" style="fill:#1a6b9c;"/></g></svg>