<?xml version="1.0" encoding="UTF-8" standalone="no"?>
<!DOCTYPE svg PUBLIC "-//W3C//DTD SVG 1.1//EN" "http://www.w3.org/Graphics/SVG/1.1/DTD/svg11.dtd">
<svg width="100%" height="100%" viewBox="0 0 2164 423" version="1.1" xmlns="http://www.w3.org/2000/svg" xmlns:xlink="http://www.w3.org/1999/xlink" xml:space="preserve" xmlns:serif="http://www.serif.com/" style="fill-rule:evenodd;clip-rule:evenodd;stroke-linejoin:round;stroke-miterlimit:2;">
    <g transform="matrix(1,0,0,1,-4886.217637,-1082.331538)">
        <g transform="matrix(1,0,0,1,3813.755589,0)">
            <g transform="matrix(11.744967,0,0,11.744967,-13923.169341,-4583.525227)">
                <path d="M1293.735,518.316C1292.841,518.316 1292.104,518.109 1291.525,517.695C1290.946,517.282 1290.474,516.661 1290.109,515.833L1277.146,486.728C1276.782,485.9 1276.683,485.172 1276.848,484.543C1277.014,483.914 1277.362,483.417 1277.891,483.053C1278.421,482.689 1279.05,482.507 1279.779,482.507C1280.739,482.507 1281.459,482.714 1281.939,483.127C1282.419,483.541 1282.825,484.162 1283.156,484.99L1294.927,512.257L1292.791,512.257L1304.513,484.94C1304.877,484.146 1305.307,483.541 1305.804,483.127C1306.301,482.714 1306.996,482.507 1307.89,482.507C1308.619,482.507 1309.223,482.689 1309.703,483.053C1310.183,483.417 1310.489,483.914 1310.622,484.543C1310.754,485.172 1310.638,485.9 1310.274,486.728L1297.311,515.833C1296.947,516.661 1296.492,517.282 1295.945,517.695C1295.399,518.109 1294.662,518.316 1293.735,518.316Z" style="fill-rule:nonzero;"/>
                <path d="M1318.419,518.316C1317.393,518.316 1316.607,518.027 1316.06,517.447C1315.514,516.868 1315.241,516.065 1315.241,515.038L1315.241,485.785C1315.241,484.725 1315.514,483.914 1316.06,483.351C1316.607,482.788 1317.393,482.507 1318.419,482.507C1319.446,482.507 1320.232,482.788 1320.779,483.351C1321.325,483.914 1321.598,484.725 1321.598,485.785L1321.598,515.038C1321.598,516.065 1321.333,516.868 1320.803,517.447C1320.274,518.027 1319.479,518.316 1318.419,518.316Z" style="fill-rule:nonzero;"/>
                <path d="M1341.316,518.416C1339.859,518.416 1338.402,518.308 1336.945,518.093C1335.488,517.878 1334.114,517.546 1332.823,517.099C1331.531,516.652 1330.373,516.098 1329.346,515.436C1328.75,515.038 1328.336,514.558 1328.104,513.995C1327.873,513.432 1327.798,512.878 1327.881,512.331C1327.964,511.785 1328.179,511.305 1328.527,510.891C1328.874,510.477 1329.313,510.221 1329.843,510.121C1330.373,510.022 1330.952,510.171 1331.581,510.568C1333.038,511.429 1334.578,512.058 1336.2,512.456C1337.823,512.853 1339.528,513.052 1341.316,513.052C1343.932,513.052 1345.835,512.613 1347.027,511.735C1348.219,510.858 1348.815,509.724 1348.815,508.333C1348.815,507.174 1348.393,506.264 1347.549,505.602C1346.705,504.939 1345.256,504.393 1343.203,503.963L1337.74,502.82C1334.594,502.158 1332.252,501.041 1330.712,499.468C1329.172,497.895 1328.402,495.817 1328.402,493.235C1328.402,491.612 1328.734,490.139 1329.396,488.814C1330.058,487.49 1330.993,486.347 1332.202,485.387C1333.411,484.427 1334.851,483.69 1336.523,483.177C1338.195,482.664 1340.041,482.407 1342.061,482.407C1344.047,482.407 1345.935,482.656 1347.723,483.152C1349.511,483.649 1351.117,484.377 1352.54,485.338C1353.07,485.702 1353.426,486.149 1353.608,486.679C1353.79,487.208 1353.832,487.73 1353.732,488.243C1353.633,488.756 1353.401,489.195 1353.037,489.559C1352.673,489.923 1352.218,490.139 1351.671,490.205C1351.125,490.271 1350.504,490.106 1349.809,489.708C1348.584,489.013 1347.342,488.516 1346.084,488.218C1344.826,487.92 1343.468,487.771 1342.011,487.771C1340.488,487.771 1339.18,487.986 1338.087,488.417C1336.995,488.847 1336.159,489.452 1335.579,490.23C1335,491.008 1334.71,491.927 1334.71,492.986C1334.71,494.178 1335.107,495.13 1335.902,495.842C1336.697,496.554 1338.054,497.109 1339.975,497.506L1345.388,498.648C1348.666,499.344 1351.108,500.436 1352.714,501.926C1354.32,503.416 1355.123,505.403 1355.123,507.886C1355.123,509.476 1354.8,510.916 1354.155,512.207C1353.509,513.499 1352.582,514.608 1351.373,515.535C1350.165,516.462 1348.716,517.174 1347.027,517.671C1345.339,518.167 1343.435,518.416 1341.316,518.416Z" style="fill-rule:nonzero;"/>
                <path d="M1400.518,517.919C1399.492,517.919 1398.697,517.629 1398.134,517.05C1397.572,516.47 1397.29,515.667 1397.29,514.641L1397.29,485.983C1397.29,484.924 1397.563,484.121 1398.11,483.574C1398.656,483.028 1399.442,482.755 1400.469,482.755C1401.495,482.755 1402.282,483.028 1402.828,483.574C1403.374,484.121 1403.647,484.924 1403.647,485.983L1403.647,512.505L1418.051,512.505C1418.945,512.505 1419.632,512.737 1420.112,513.201C1420.592,513.664 1420.832,514.326 1420.832,515.187C1420.832,516.048 1420.592,516.719 1420.112,517.199C1419.632,517.679 1418.945,517.919 1418.051,517.919L1400.518,517.919Z" style="fill-rule:nonzero;"/>
                <path d="M1428.381,518.316C1427.355,518.316 1426.569,518.027 1426.022,517.447C1425.476,516.868 1425.203,516.065 1425.203,515.038L1425.203,486.132C1425.203,485.073 1425.484,484.27 1426.047,483.723C1426.61,483.177 1427.405,482.904 1428.431,482.904L1440.401,482.904C1444.242,482.904 1447.205,483.864 1449.291,485.785C1451.377,487.705 1452.42,490.387 1452.42,493.831C1452.42,497.274 1451.377,499.964 1449.291,501.901C1447.205,503.838 1444.242,504.807 1440.401,504.807L1431.56,504.807L1431.56,515.038C1431.56,516.065 1431.295,516.868 1430.765,517.447C1430.236,518.027 1429.441,518.316 1428.381,518.316ZM1431.56,499.791L1439.407,499.791C1441.659,499.791 1443.364,499.286 1444.523,498.276C1445.682,497.266 1446.261,495.784 1446.261,493.831C1446.261,491.877 1445.682,490.404 1444.523,489.41C1443.364,488.417 1441.659,487.92 1439.407,487.92L1431.56,487.92L1431.56,499.791Z" style="fill-rule:nonzero;"/>
                <path d="M1457.337,518.167C1456.211,518.167 1455.309,517.82 1454.63,517.124C1453.952,516.429 1453.612,515.535 1453.612,514.442C1453.612,513.383 1453.952,512.514 1454.63,511.835C1455.309,511.156 1456.211,510.817 1457.337,510.817C1458.496,510.817 1459.398,511.156 1460.044,511.835C1460.69,512.514 1461.012,513.383 1461.012,514.442C1461.012,515.535 1460.69,516.429 1460.044,517.124C1459.398,517.82 1458.496,518.167 1457.337,518.167Z" style="fill-rule:nonzero;"/>
                <g transform="matrix(-0.022597,0,-0,-0.033206,1392.781785,518.415562)">
                    <path d="M784.651,1078.411C745.089,1078.411 712.486,1072.179 686.844,1059.714C661.202,1047.25 640.322,1028.554 624.204,1003.625L50.552,127.136C34.434,102.207 30.038,80.27 37.364,61.324C44.691,42.379 60.076,27.421 83.52,16.453C106.965,5.484 134.805,0 167.04,0C209.533,0 241.403,6.232 262.649,18.696C283.896,31.161 301.845,49.857 316.498,74.786L837.4,895.934L742.891,895.934L1261.595,73.29C1277.713,49.359 1296.762,31.161 1318.741,18.696C1340.72,6.232 1371.49,0 1411.053,0C1443.288,0 1470.03,5.484 1491.276,16.453C1512.522,27.421 1526.076,42.379 1531.937,61.324C1537.798,80.27 1532.67,102.207 1516.552,127.136L942.9,1003.625C926.782,1028.554 906.634,1047.25 882.457,1059.714C858.28,1072.179 825.678,1078.411 784.651,1078.411Z" style="fill-rule:nonzero;"/>
                </g>
            </g>
        </g>
    </g>
</svg>
